# Blender v2.81 (sub 16) OBJ File: ''
# www.blender.org
mtllib car_body.mtl
o Cube_Cube.001
v -1.000000 -1.000000 0.726019
v -1.000000 -0.118544 0.726019
v -1.000000 -1.000000 -0.726019
v -1.000000 -0.118544 -0.726019
v 1.000000 -1.000000 0.726019
v 1.000000 -0.118544 0.726019
v 1.000000 -1.000000 -0.726019
v 1.000000 -0.118544 -0.726019
v -0.421782 0.620147 -0.458315
v 0.421782 0.620147 -0.458315
v 0.421782 0.620147 0.458315
v -0.421782 0.620147 0.458315
v -1.511070 -1.000000 -0.726019
v -1.511070 -1.000000 0.726019
v -1.511070 -0.323928 0.726019
v -1.511070 -0.323928 -0.726019
v 1.271268 -0.118544 -0.726019
v 1.271268 -1.000000 -0.726019
v 1.271268 -1.000000 0.726019
v 1.271268 -0.118544 0.726019
vt 0.791667 0.500000
vt 0.875000 0.500000
vt 0.875000 0.750000
vt 0.791667 0.750000
vt 0.625000 0.500000
vt 0.708333 0.500000
vt 0.708333 0.750000
vt 0.625000 0.750000
vt 0.625000 1.000000
vt 0.625000 0.833333
vt 0.625000 0.916667
vt 0.625000 0.250000
vt 0.625000 0.333333
vt 0.625000 0.416667
vt 0.375000 0.250000
vt 0.375000 0.250000
vt 0.625000 0.250000
vt 0.625000 0.750000
vt 0.625000 0.500000
vt 0.125000 0.500000
vt 0.375000 0.500000
vt 0.375000 0.750000
vt 0.125000 0.750000
vt 0.375000 1.000000
vt 0.375000 0.000000
vt 0.625000 0.000000
vt 0.625000 1.000000
vt 0.375000 1.000000
vt 0.875000 0.500000
vt 0.875000 0.750000
vt 0.125000 0.750000
vt 0.125000 0.500000
vt 0.375000 0.500000
vt 0.375000 0.750000
vn -0.7874 0.6164 0.0000
vn 0.7874 0.6164 0.0000
vn 0.0000 0.3407 0.9402
vn 0.0000 0.3407 -0.9402
vn 0.0000 0.0000 -1.0000
vn 0.0000 1.0000 0.0000
vn 0.0000 -1.0000 0.0000
vn 0.0000 0.0000 1.0000
vn -1.0000 0.0000 0.0000
vn -0.3729 0.9279 0.0000
vn 1.0000 0.0000 0.0000
usemtl Glass
s off
f 9/1/1 4/2/1 2/3/1 12/4/1
f 8/5/2 10/6/2 11/7/2 6/8/2
f 2/9/3 6/8/3 11/10/3 12/11/3
f 8/5/4 4/12/4 9/13/4 10/14/4
usemtl CarPaint
f 4/12/5 3/15/5 13/16/5 16/17/5
f 8/5/6 6/8/6 20/18/6 17/19/6
f 10/6/6 9/1/6 12/4/6 11/7/6
f 3/20/7 7/21/7 5/22/7 1/23/7
f 6/8/8 2/9/8 1/24/8 5/22/8
f 4/12/5 8/5/5 7/21/5 3/15/5
f 14/25/9 15/26/9 16/17/9 13/16/9
f 1/24/8 2/9/8 15/27/8 14/28/8
f 2/3/10 4/2/10 16/29/10 15/30/10
f 3/20/7 1/23/7 14/31/7 13/32/7
f 18/33/11 17/19/11 20/18/11 19/34/11
f 7/21/5 8/5/5 17/19/5 18/33/5
f 6/8/8 5/22/8 19/34/8 20/18/8
f 5/22/7 7/21/7 18/33/7 19/34/7
