# WaveFront *.obj file (generated by CINEMA 4D)

mtllib ./L1.mtl

v 345.66458129882812 0.00000000000002 50
v 345.66458129882812 150 50
v 345.66458129882812 0.00000000000001 -50
v 345.66458129882812 150 -50
v 295.66458129882812 -0.00000000000001 -100
v 295.66458129882812 150 -100
v 195.66458129882812 -0.00000000000001 -100
v 195.66458129882812 150 -100
v 301.59280395507812 150 43.37948608398438
v 258.498291015625 150 22.07390594482422
v 223.59068298339844 150 -12.83371257781982
v 202.28509521484375 150 -55.9282112121582
v 330.9739990234375 150 -52.20683670043945
v 316.60916137695312 150 -59.30869674682617
v 304.9732666015625 150 -70.94457244873047
v 297.87142944335938 150 -85.30940246582031
v 330.064697265625 1.53663349151611 -49.30977249145508
v 314.83697509765625 1.54063272476196 -56.83823776245117
v 302.5028076171875 1.54063272476196 -69.17238616943359
v 294.974365234375 1.53663349151611 -84.40011596679688
v 302.5020751953125 1.53663349151611 40.482421875
v 260.27047729492188 1.54063272476196 19.60344505310059
v 226.06114196777344 1.54063272476196 -14.60589408874512
v 205.18215942382812 1.53663349151611 -56.83749771118164
v 346.11026000976562 3 47.03328704833984
v 346.11026000976562 150 47.03328704833984
v 345.21893310546875 3 -47.03328704833984
v 345.21893310546875 150 -47.03328704833984
v 292.6978759765625 3 -99.55433654785156
v 292.6978759765625 150 -99.55433654785156
v 198.63130187988281 3 -100.44566345214844
v 198.63130187988281 150 -100.44566345214844
v 302.5020751953125 150 40.482421875
v 260.27047729492188 150 19.60344505310059
v 226.06114196777344 150 -14.60589408874512
v 205.18215942382812 150 -56.83749771118164
v 330.064697265625 150 -49.30977249145508
v 314.83697509765625 150 -56.83823776245117
v 302.5028076171875 150 -69.17238616943359
v 294.974365234375 150 -84.40011596679688
v 330.9739990234375 -0.00000000000001 -52.20683670043945
v 316.60916137695312 0.00000000000001 -59.30869674682617
v 304.9732666015625 -0.00000000000001 -70.94457244873047
v 297.87142944335938 -0.00000000000001 -85.30940246582031
v 301.59280395507812 -0.00000000000004 43.37948608398438
v 258.498291015625 0.00000000000002 22.07390594482422
v 223.59068298339844 -0.00000000000001 -12.83371257781982
v 202.28509521484375 -0.00000000000002 -55.9282112121582
v -100 0.00000000000002 50
v -100 150 50
v -100 0.00000000000001 -50
v -100 150 -50
v -50 0.00000000000001 -100
v -50 150 -100
v 50 0 -100
v 50 150 -100
v -55.9282112121582 150 43.37948608398438
v -12.83371257781982 150 22.07390594482422
v 22.07390594482422 150 -12.83371257781982
v 43.37948608398438 150 -55.9282112121582
v -85.30940246582031 150 -52.20683670043945
v -70.94457244873047 150 -59.30869674682617
v -59.30869674682617 150 -70.94457244873047
v -52.20683670043945 150 -85.30940246582031
v -84.40011596679688 1.53663349151611 -49.30977249145508
v -69.17238616943359 1.54063272476196 -56.83823776245117
v -56.83823776245117 1.54063272476196 -69.17238616943359
v -49.30977249145508 1.53663349151611 -84.40011596679688
v -56.83749771118164 1.53663349151611 40.482421875
v -14.60589408874512 1.54063272476196 19.60344505310059
v 19.60344505310059 1.54063272476196 -14.60589408874512
v 40.482421875 1.53663349151611 -56.83749771118164
v -100.44566345214844 3 47.03328704833984
v -100.44566345214844 150 47.03328704833984
v -99.55433654785156 3 -47.03328704833984
v -99.55433654785156 150 -47.03328704833984
v -47.03328704833984 3 -99.55433654785156
v -47.03328704833984 150 -99.55433654785156
v 47.03328704833984 3 -100.44566345214844
v 47.03328704833984 150 -100.44566345214844
v -56.83749771118164 150 40.482421875
v -14.60589408874512 150 19.60344505310059
v 19.60344505310059 150 -14.60589408874512
v 40.482421875 150 -56.83749771118164
v -84.40011596679688 150 -49.30977249145508
v -69.17238616943359 150 -56.83823776245117
v -56.83823776245117 150 -69.17238616943359
v -49.30977249145508 150 -84.40011596679688
v -85.30940246582031 -0.00000000000001 -52.20683670043945
v -70.94457244873047 0.00000000000001 -59.30869674682617
v -59.30869674682617 -0.00000000000001 -70.94457244873047
v -52.20683670043945 0.00000000000001 -85.30940246582031
v -55.9282112121582 -0.00000000000002 43.37948608398438
v -12.83371257781982 0.00000000000002 22.07390594482422
v 22.07390594482422 0.00000000000001 -12.83371257781982
v 43.37948608398438 -0 -55.9282112121582
# 96 vertices

vn 0.14855439960957 0 0.98890423774719
vn 0.29946196079254 0 0.95410823822021
vn -0.00693773897365 0.99948501586914 0.03133057430387
vn -0.01395016815513 0.99793070554733 0.06276674568653
vn 0.58288490772247 0 0.8125547170639
vn 0.03203761577606 0.99948424100876 -0.00220461445861
vn 0.06419087946415 0.99792766571045 -0.00446691270918
vn 0.00004095193799 1 -0.00006908518117
vn -0.95410823822021 0 -0.29946202039719
vn -0.81255465745926 0 -0.58288502693176
vn 0.8125547170639 0 0.58288490772247
vn -0.29946202039719 0 -0.95410823822021
vn -0.14855426549912 0 -0.98890423774719
vn 0.95410823822021 0 0.29946196079254
vn -0.00007450477278 1 0.00002998977106
vn 0.98890423774719 0 0.14855439960957
vn -0.98890423774719 0 -0.14855425059795
vn -0.58288502693176 0 -0.81255465745926
vn -0.14855422079563 0 -0.98890423774719
vn 0 -1 -0
vn -0 -1 -0
vn -0 -1 -0
vn -0 -1 0
vn -0 -1 0
vn 0.95410823822021 0 0.29946202039719
vn 0.81255465745926 0 0.58288502693176
vn 0.29946202039719 0 0.95410823822021
vn 0.1485543102026 0 0.98890423774719
vn 0 -1 0
vn -0.98890423774719 0 -0.14855422079563
vn 0.98890423774719 0 0.1485543102026
vn 0.58288502693176 0 0.81255465745926
vn -0.99739307165146 -0.00229390896857 0.07212357223034
vn -0.98890423774719 0 0.14855445921421
vn 0 1 0
vn 0.07212357223034 0.00229390524328 -0.99739307165146
vn 0 1 0
vn 0 1 -0
vn 0.14855445921421 0 -0.98890423774719
vn 0 1 0
# 40 normals

vt 0.90976023674011 0.34810996055603 0
vt 0.90976023674011 0.65726202726364 0
vt 0.94203644990921 0.65726202726364 0
vt 0.94203644990921 0.34503245353699 0
vt 0.64725667238235 0.89326971769333 0
vt 0.45601293444633 0.95123594999313 0
vt 0.46086150407791 0.98310643434525 0
vt 0.66120904684067 0.98498094081879 0
vt 0.24060882627964 0.0087798833847 0
vt 0.24060882627964 0.321009516716 0
vt 0.25664332509041 0.321009516716 0
vt 0.25664332509041 0.00878822803497 0
vt 0.38127583265305 0.87743830680847 0
vt 0.43998003005981 0.6885986328125 0
vt 0.34710124135017 0.67482167482376 0
vt 0.34899961948395 0.87265074253082 0
vt 0.60278761386871 0.80445349216461 0
vt 0.43997845053673 0.91921091079712 0
vt 0.77187103033066 0.67482167482376 0
vt 0.77187103033066 0.98705124855042 0
vt 0.86181795597076 0.98705124855042 0
vt 0.86181795597076 0.67483007907867 0
vt 0.28291317820549 0.321009516716 0
vt 0.28291317820549 0.00878822803497 0
vt 0.6789922118187 0.0087798833847 0
vt 0.6789922118187 0.321009516716 0
vt 0.77187103033066 0.321009516716 0
vt 0.77187103033066 0.01185739040375 0
vt 0.31534594297409 0.321009516716 0
vt 0.31534594297409 0.0087798833847 0
vt 0.41370856761932 0.89327126741409 0
vt 0.52992695569992 0.73250865936279 0
vt 0.34762212634087 0.321009516716 0
vt 0.34762212634087 0.01185739040375 0
vt 0.6789922118187 0.67789924144745 0
vt 0.6789922118187 0.98705124855042 0
vt 0.93467861413956 0.67483007907867 0
vt 0.93467861413956 0.98705124855042 0
vt 0.9791476726532 0.98705124855042 0
vt 0.9791476726532 0.67482167482376 0
vt 0.99110841751099 0.65726202726364 0
vt 0.99110841751099 0.34180080890656 0
vt 0.95981967449188 0.34180080890656 0
vt 0.95981967449188 0.65726202726364 0
vt 0.11163298040628 0.37269616127014 0
vt 0.31521734595299 0.43448710441589 0
vt 0.32931804656982 0.34180080890656 0
vt 0.11633320897818 0.34180080890656 0
vt 0.66120904684067 0.32424116134644 0
vt 0.66120904684067 0.0087798833847 0
vt 0.64608317613602 0.0087798833847 0
vt 0.64608317613602 0.32424116134644 0
vt 0.10370702296495 0.64333856105804 0
vt 0.04112953320146 0.44231343269348 0
vt 0.00984079111367 0.44695448875427 0
vt 0.00984079111367 0.65726202726364 0
vt 0.09650709480047 0.40290653705597 0
vt 0.26983970403671 0.5251179933548 0
vt 0.56734281778336 0.65726202726364 0
vt 0.56734281778336 0.34180080890656 0
vt 0.47555807232857 0.34180080890656 0
vt 0.47555807232857 0.65726202726364 0
vt 0.62130051851273 0.0087798833847 0
vt 0.62130051851273 0.32424116134644 0
vt 0.54163366556168 0.32424116134644 0
vt 0.54163366556168 0.0087798833847 0
vt 0.44776743650436 0.0087798833847 0
vt 0.44776743650436 0.32424116134644 0
vt 0.59070557355881 0.0087798833847 0
vt 0.59070557355881 0.32424116134644 0
vt 0.19549176096916 0.59853136539459 0
vt 0.07172445207834 0.42737758159637 0
vt 0.5594168305397 0.0087798833847 0
vt 0.5594168305397 0.32424116134644 0
vt 0.66120904684067 0.65726202726364 0
vt 0.66120904684067 0.34180080890656 0
vt 0.40121012926102 0.65726202726364 0
vt 0.40121012926102 0.34180080890656 0
vt 0.35583248734474 0.34180080890656 0
vt 0.35583248734474 0.65726202726364 0
vt 0.00984079111367 0.0087798833847 0
vt 0.00984079111367 0.32424116134644 0
vt 0.01615943945944 0.32424116134644 0
vt 0.01615943945944 0.01508903503418 0
vt 0.78965419530869 0.215855717659 0
vt 0.82094293832779 0.22049689292908 0
vt 0.82287961244583 0.21440410614014 0
vt 0.79060339927673 0.20961654186249 0
vt 0.89197707176208 0.34180080890656 0
vt 0.6789922118187 0.34180080890656 0
vt 0.68531090021133 0.34810996055603 0
vt 0.88565844297409 0.34810996055603 0
vt 0.85153788328171 0.23543262481689 0
vt 0.85531234741211 0.23023700714111 0
vt 0.22282563149929 0.0087798833847 0
vt 0.21650697290897 0.01508903503418 0
vt 0.31521734595299 0.89759659767151 0
vt 0.26983970403671 0.8069657087326 0
vt 0.26457798480988 0.81069266796112 0
vt 0.30904704332352 0.89950895309448 0
vt 0.87632048130035 0.2599036693573 0
vt 0.88158220052719 0.25617671012878 0
vt 0.22282563149929 0.32424116134644 0
vt 0.21650697290897 0.32424116134644 0
vt 0.10370702296495 0.68874508142471 0
vt 0.00984079111367 0.67482167482376 0
vt 0.00889159645885 0.68106091022491 0
vt 0.10177037119865 0.69483786821365 0
vt 0.89144641160965 0.29011404514313 0
vt 0.8976166844368 0.28820168972015 0
vt 0.89197707176208 0.65726202726364 0
vt 0.88565844297409 0.65726202726364 0
vt 0.89614659547806 0.321009516716 0
vt 0.9024652838707 0.32007217407227 0
vt 0.6789922118187 0.65726202726364 0
vt 0.68531090021133 0.65726202726364 0
vt 0.32931804656982 0.99028289318085 0
vt 0.32299938797951 0.99122017621994 0
vt 0.19549176096916 0.73355233669281 0
vt 0.1917172819376 0.73874789476395 0
# 120 texture coordinates

o L1
usemtl WALL
f 65/4/2 85/3/2 76/2/1 75/1/1
f 66/12/5 86/11/5 85/10/2 65/9/2
f 71/22/10 83/21/10 84/20/9 72/19/9
f 67/24/11 87/23/11 86/11/5 66/12/5
f 73/28/13 74/27/13 81/26/12 69/25/12
f 68/30/14 88/29/14 87/23/11 67/24/11
f 77/34/16 78/33/16 88/29/14 68/30/14
f 72/19/9 84/20/9 80/36/17 79/35/17
f 69/40/12 81/39/12 82/38/18 70/37/18
f 70/37/18 82/38/18 83/21/10 71/22/10

usemtl FLOOR
f 79/8/4 77/7/4 68/6/3 72/5/3
f 75/16/7 73/15/7 69/14/6 65/13/6
f 72/5/3 68/6/3 67/18/8 71/17/8
f 70/32/15 66/31/15 65/13/6 69/14/6
f 71/17/8 67/18/8 66/31/15 70/32/15

usemtl OTHER
f 61/44/12 89/43/12 51/42/19 52/41/19
f 53/48/21 55/47/21 96/46/20 92/45/20
f 62/52/18 90/51/18 89/50/12 61/49/12
f 49/56/23 51/55/23 89/54/22 93/53/22
f 92/45/20 96/46/20 95/58/24 91/57/24
f 59/62/26 95/61/26 96/60/25 60/59/25
f 63/64/10 91/63/10 90/51/18 62/52/18
f 50/68/28 49/67/28 93/66/27 57/65/27
f 64/70/9 92/69/9 91/63/10 63/64/10
f 90/72/29 94/71/29 93/53/22 89/54/22
f 54/74/30 53/73/30 92/69/9 64/70/9
f 60/59/25 96/60/25 55/76/31 56/75/31
f 57/80/27 93/79/27 94/78/32 58/77/32
f 58/77/32 94/78/32 95/61/26 59/62/26
f 91/57/24 95/58/24 94/71/29 90/72/29
f 75/84/33 76/83/34 52/82/34 51/81/33
f 76/88/35 85/87/35 61/86/35 52/85/35
f 77/92/36 79/91/36 55/90/36 53/89/36
f 85/87/35 86/94/35 62/93/35 61/86/35
f 73/96/33 75/84/33 51/81/33 49/95/33
f 84/100/35 83/99/37 59/98/37 60/97/35
f 86/94/35 87/102/35 63/101/35 62/93/35
f 74/104/34 73/96/33 49/95/33 50/103/34
f 81/108/38 74/107/35 50/106/35 57/105/38
f 87/102/35 88/110/35 64/109/35 63/101/35
f 78/112/39 77/92/36 53/89/36 54/111/39
f 88/110/35 78/114/35 54/113/35 64/109/35
f 79/91/36 80/116/39 56/115/39 55/90/36
f 80/118/35 84/100/35 60/97/35 56/117/35
f 82/120/40 81/108/38 57/105/38 58/119/40
f 83/99/37 82/120/40 58/119/40 59/98/37

