# WaveFront *.obj file (generated by CINEMA 4D)

mtllib ./L2.mtl

v 50 0 -345.66458129882812
v 50 150 -345.66458129882812
v -50 0 -345.66458129882812
v -50 150 -345.66458129882812
v -100 0 -295.66458129882812
v -100 150 -295.66458129882812
v -100 0.00000000000001 -195.66458129882812
v -100 150 -195.66458129882812
v 43.37948608398438 150 -301.59280395507812
v 22.07390594482422 150 -258.498291015625
v -12.83371257781982 150 -223.59068298339844
v -55.9282112121582 150 -202.28509521484375
v -52.20683670043945 150 -330.9739990234375
v -59.30869674682617 150 -316.60916137695312
v -70.94457244873047 150 -304.9732666015625
v -85.30940246582031 150 -297.87142944335938
v -49.30977249145508 1.53663349151611 -330.064697265625
v -56.83823776245117 1.54063272476196 -314.83697509765625
v -69.17238616943359 1.54063272476196 -302.5028076171875
v -84.40011596679688 1.53663349151611 -294.974365234375
v 40.482421875 1.53663349151611 -302.5020751953125
v 19.60344505310059 1.54063272476196 -260.27047729492188
v -14.60589408874512 1.54063272476196 -226.06114196777344
v -56.83749771118164 1.53663349151611 -205.18215942382812
v 47.03328704833984 3 -346.11026000976562
v 47.03328704833984 150 -346.11026000976562
v -47.03328704833984 3 -345.21893310546875
v -47.03328704833984 150 -345.21893310546875
v -99.55433654785156 3 -292.6978759765625
v -99.55433654785156 150 -292.6978759765625
v -100.44566345214844 3 -198.63130187988281
v -100.44566345214844 150 -198.63130187988281
v 40.482421875 150 -302.5020751953125
v 19.60344505310059 150 -260.27047729492188
v -14.60589408874512 150 -226.06114196777344
v -56.83749771118164 150 -205.18215942382812
v -49.30977249145508 150 -330.064697265625
v -56.83823776245117 150 -314.83697509765625
v -69.17238616943359 150 -302.5028076171875
v -84.40011596679688 150 -294.974365234375
v -52.20683670043945 0.00000000000002 -330.9739990234375
v -59.30869674682617 0.00000000000005 -316.60916137695312
v -70.94457244873047 0 -304.9732666015625
v -85.30940246582031 0 -297.87142944335938
v 43.37948608398438 -0.00000000000001 -301.59280395507812
v 22.07390594482422 0.00000000000003 -258.498291015625
v -12.83371257781982 -0.00000000000001 -223.59068298339844
v -55.9282112121582 0.00000000000001 -202.28509521484375
v 50 0.00000000000002 100
v 50 150 100
v -50 -0 100
v -50 150 100
v -100 0.00000000000001 50
v -100 150 50
v -100 0.00000000000001 -50
v -100 150 -50
v 43.37948608398438 150 55.9282112121582
v 22.07390594482422 150 12.83371257781982
v -12.83371257781982 150 -22.07390594482422
v -55.9282112121582 150 -43.37948608398438
v -52.20683670043945 150 85.30940246582031
v -59.30869674682617 150 70.94457244873047
v -70.94457244873047 150 59.30869674682617
v -85.30940246582031 150 52.20683670043945
v -49.30977249145508 1.53663349151611 84.40011596679688
v -56.83823776245117 1.54063272476196 69.17238616943359
v -69.17238616943359 1.54063272476196 56.83823776245117
v -84.40011596679688 1.53663349151611 49.30977249145508
v 40.482421875 1.53663349151611 56.83749771118164
v 19.60344505310059 1.54063272476196 14.60589408874512
v -14.60589408874512 1.54063272476196 -19.60344505310059
v -56.83749771118164 1.53663349151611 -40.482421875
v 47.03328704833984 3 100.44566345214844
v 47.03328704833984 150 100.44566345214844
v -47.03328704833984 3 99.55433654785156
v -47.03328704833984 150 99.55433654785156
v -99.55433654785156 3 47.03328704833984
v -99.55433654785156 150 47.03328704833984
v -100.44566345214844 3 -47.03328704833984
v -100.44566345214844 150 -47.03328704833984
v 40.482421875 150 56.83749771118164
v 19.60344505310059 150 14.60589408874512
v -14.60589408874512 150 -19.60344505310059
v -56.83749771118164 150 -40.482421875
v -49.30977249145508 150 84.40011596679688
v -56.83823776245117 150 69.17238616943359
v -69.17238616943359 150 56.83823776245117
v -84.40011596679688 150 49.30977249145508
v -52.20683670043945 -0 85.30940246582031
v -59.30869674682617 0.00000000000004 70.94457244873047
v -70.94457244873047 -0.00000000000001 59.30869674682617
v -85.30940246582031 0.00000000000001 52.20683670043945
v 43.37948608398438 -0.00000000000002 55.9282112121582
v 22.07390594482422 0.00000000000002 12.83371257781982
v -12.83371257781982 0.00000000000001 -22.07390594482422
v -55.9282112121582 0 -43.37948608398438
# 96 vertices

vn 0.98890423774719 0 -0.14855439960957
vn 0.95410823822021 0 -0.29946196079254
vn 0.03133057430387 0.99948501586914 0.00693773897365
vn 0.06276674568653 0.99793070554733 0.01395016815513
vn 0.8125547170639 0 -0.58288490772247
vn -0.00220461445861 0.99948424100876 -0.03203761577606
vn -0.00446691270918 0.99792766571045 -0.06419087946415
vn -0.00006908518117 1 -0.00004095193799
vn -0.29946202039719 0 0.95410823822021
vn -0.58288502693176 0 0.81255465745926
vn 0.58288490772247 0 -0.8125547170639
vn -0.95410823822021 0 0.29946202039719
vn -0.98890423774719 0 0.14855426549912
vn 0.29946196079254 0 -0.95410823822021
vn 0.00002998977106 1 0.00007450477278
vn 0.14855439960957 0 -0.98890423774719
vn -0.14855425059795 0 0.98890423774719
vn -0.81255465745926 0 0.58288502693176
vn -0.98890423774719 0 0.14855422079563
vn -0 -1 -0
vn -0 -1 -0
vn -0 -1 -0
vn 0 -1 0
vn 0 -1 0
vn 0.29946202039719 0 -0.95410823822021
vn 0.58288502693176 0 -0.81255465745926
vn 0.95410823822021 0 -0.29946202039719
vn 0.98890423774719 0 -0.1485543102026
vn 0 -1 -0
vn -0.14855422079563 0 0.98890423774719
vn 0.1485543102026 0 -0.98890423774719
vn 0.81255465745926 0 -0.58288502693176
vn 0.07212357223034 -0.00229390524328 0.99739307165146
vn 0.14855445921421 0 0.98890423774719
vn 0 1 0
vn -0.99739307165146 0.00229390896857 -0.07212357223034
vn 0.00000000000001 1 -0.00000000000001
vn 0.00000000000001 1 -0
vn -0.98890423774719 0 -0.14855445921421
vn 0.00000000000002 1 -0.00000000000001
# 40 normals

vt 0.90976023674011 0.34810996055603 0
vt 0.90976023674011 0.65726202726364 0
vt 0.94203644990921 0.65726202726364 0
vt 0.94203644990921 0.34503245353699 0
vt 0.43998003005981 0.97120398283005 0
vt 0.38127583265305 0.78236424922943 0
vt 0.34899961948395 0.78715193271637 0
vt 0.34710124135017 0.98498094081879 0
vt 0.24060882627964 0.0087798833847 0
vt 0.24060882627964 0.321009516716 0
vt 0.25664332509041 0.321009516716 0
vt 0.25664332509041 0.00878822803497 0
vt 0.45601293444633 0.70856666564941 0
vt 0.64725667238235 0.76653289794922 0
vt 0.66120904684067 0.67482167482376 0
vt 0.46086150407791 0.6766961812973 0
vt 0.52992695569992 0.92729395627975 0
vt 0.41370856761932 0.76653134822845 0
vt 0.77187103033066 0.67482167482376 0
vt 0.77187103033066 0.98705124855042 0
vt 0.86181795597076 0.98705124855042 0
vt 0.86181795597076 0.67483007907867 0
vt 0.28291317820549 0.321009516716 0
vt 0.28291317820549 0.00878822803497 0
vt 0.6789922118187 0.0087798833847 0
vt 0.6789922118187 0.321009516716 0
vt 0.77187103033066 0.321009516716 0
vt 0.77187103033066 0.01185739040375 0
vt 0.31534594297409 0.321009516716 0
vt 0.31534594297409 0.0087798833847 0
vt 0.43997845053673 0.74059170484543 0
vt 0.60278761386871 0.85534912347794 0
vt 0.34762212634087 0.321009516716 0
vt 0.34762212634087 0.01185739040375 0
vt 0.6789922118187 0.67789924144745 0
vt 0.6789922118187 0.98705124855042 0
vt 0.93467861413956 0.67483007907867 0
vt 0.93467861413956 0.98705124855042 0
vt 0.9791476726532 0.98705124855042 0
vt 0.9791476726532 0.67482167482376 0
vt 0.99110841751099 0.65726202726364 0
vt 0.99110841751099 0.34180080890656 0
vt 0.95981967449188 0.34180080890656 0
vt 0.95981967449188 0.65726202726364 0
vt 0.04112953320146 0.55674940347672 0
vt 0.10370702296495 0.35572421550751 0
vt 0.00984079111367 0.34180080890656 0
vt 0.00984079111367 0.55210828781128 0
vt 0.66120904684067 0.32424116134644 0
vt 0.66120904684067 0.0087798833847 0
vt 0.64608317613602 0.0087798833847 0
vt 0.64608317613602 0.32424116134644 0
vt 0.31521734595299 0.5645757317543 0
vt 0.11163298040628 0.62636661529541 0
vt 0.11633320897818 0.65726202726364 0
vt 0.32931804656982 0.65726202726364 0
vt 0.07172445207834 0.57168513536453 0
vt 0.19549176096916 0.40053141117096 0
vt 0.56734281778336 0.65726202726364 0
vt 0.56734281778336 0.34180080890656 0
vt 0.47555807232857 0.34180080890656 0
vt 0.47555807232857 0.65726202726364 0
vt 0.62130051851273 0.0087798833847 0
vt 0.62130051851273 0.32424116134644 0
vt 0.54163366556168 0.32424116134644 0
vt 0.54163366556168 0.0087798833847 0
vt 0.44776743650436 0.0087798833847 0
vt 0.44776743650436 0.32424116134644 0
vt 0.59070557355881 0.0087798833847 0
vt 0.59070557355881 0.32424116134644 0
vt 0.26983970403671 0.47394478321075 0
vt 0.09650709480047 0.59615623950958 0
vt 0.5594168305397 0.0087798833847 0
vt 0.5594168305397 0.32424116134644 0
vt 0.66120904684067 0.65726202726364 0
vt 0.66120904684067 0.34180080890656 0
vt 0.40121012926102 0.65726202726364 0
vt 0.40121012926102 0.34180080890656 0
vt 0.35583248734474 0.34180080890656 0
vt 0.35583248734474 0.65726202726364 0
vt 0.6789922118187 0.34180080890656 0
vt 0.6789922118187 0.65726202726364 0
vt 0.68531090021133 0.65726202726364 0
vt 0.68531090021133 0.34810996055603 0
vt 0.89614659547806 0.20961654186249 0
vt 0.89144641160965 0.24051189422607 0
vt 0.8976166844368 0.24242424964905 0
vt 0.9024652838707 0.21055376529694 0
vt 0.22282563149929 0.0087798833847 0
vt 0.00984079111367 0.0087798833847 0
vt 0.01615943945944 0.01508903503418 0
vt 0.21650697290897 0.01508903503418 0
vt 0.87632048130035 0.2707222700119 0
vt 0.88158220052719 0.27444922924042 0
vt 0.89197707176208 0.34180080890656 0
vt 0.88565844297409 0.34810996055603 0
vt 0.10370702296495 0.97729671001434 0
vt 0.19549176096916 0.93248951435089 0
vt 0.1917172819376 0.92729395627975 0
vt 0.10177037119865 0.97120398283005 0
vt 0.85153788328171 0.29519331455231 0
vt 0.85531234741211 0.30038893222809 0
vt 0.89197707176208 0.65726202726364 0
vt 0.88565844297409 0.65726202726364 0
vt 0.31521734595299 0.76844519376755 0
vt 0.32931804656982 0.67575889825821 0
vt 0.32299938797951 0.67482167482376 0
vt 0.30904704332352 0.76653289794922 0
vt 0.82094293832779 0.31012904644012 0
vt 0.82287961244583 0.31622183322906 0
vt 0.22282563149929 0.32424116134644 0
vt 0.21650697290897 0.32424116134644 0
vt 0.78965419530869 0.31477022171021 0
vt 0.79060339927673 0.321009516716 0
vt 0.00984079111367 0.32424116134644 0
vt 0.01615943945944 0.32424116134644 0
vt 0.00984079111367 0.99122017621994 0
vt 0.00889159645885 0.98498094081879 0
vt 0.26983970403671 0.8590761423111 0
vt 0.26457798480988 0.85534912347794 0
# 120 texture coordinates

o L2
usemtl WALL
f 65/4/2 85/3/2 76/2/1 75/1/1
f 66/12/5 86/11/5 85/10/2 65/9/2
f 71/22/10 83/21/10 84/20/9 72/19/9
f 67/24/11 87/23/11 86/11/5 66/12/5
f 73/28/13 74/27/13 81/26/12 69/25/12
f 68/30/14 88/29/14 87/23/11 67/24/11
f 77/34/16 78/33/16 88/29/14 68/30/14
f 72/19/9 84/20/9 80/36/17 79/35/17
f 69/40/12 81/39/12 82/38/18 70/37/18
f 70/37/18 82/38/18 83/21/10 71/22/10

usemtl FLOOR
f 79/8/4 77/7/4 68/6/3 72/5/3
f 75/16/7 73/15/7 69/14/6 65/13/6
f 72/5/3 68/6/3 67/18/8 71/17/8
f 70/32/15 66/31/15 65/13/6 69/14/6
f 71/17/8 67/18/8 66/31/15 70/32/15

usemtl OTHER
f 61/44/12 89/43/12 51/42/19 52/41/19
f 53/48/21 55/47/21 96/46/20 92/45/20
f 62/52/18 90/51/18 89/50/12 61/49/12
f 49/56/23 51/55/23 89/54/22 93/53/22
f 92/45/20 96/46/20 95/58/24 91/57/24
f 59/62/26 95/61/26 96/60/25 60/59/25
f 63/64/10 91/63/10 90/51/18 62/52/18
f 50/68/28 49/67/28 93/66/27 57/65/27
f 64/70/9 92/69/9 91/63/10 63/64/10
f 90/72/29 94/71/29 93/53/22 89/54/22
f 54/74/30 53/73/30 92/69/9 64/70/9
f 60/59/25 96/60/25 55/76/31 56/75/31
f 57/80/27 93/79/27 94/78/32 58/77/32
f 58/77/32 94/78/32 95/61/26 59/62/26
f 91/57/24 95/58/24 94/71/29 90/72/29
f 75/84/33 76/83/34 52/82/34 51/81/33
f 76/88/35 85/87/35 61/86/35 52/85/35
f 77/92/36 79/91/36 55/90/36 53/89/36
f 85/87/35 86/94/35 62/93/35 61/86/35
f 73/96/33 75/84/33 51/81/33 49/95/33
f 84/100/35 83/99/37 59/98/37 60/97/35
f 86/94/35 87/102/35 63/101/35 62/93/35
f 74/104/34 73/96/33 49/95/33 50/103/34
f 81/108/38 74/107/35 50/106/35 57/105/38
f 87/102/35 88/110/35 64/109/35 63/101/35
f 78/112/39 77/92/36 53/89/36 54/111/39
f 88/110/35 78/114/35 54/113/35 64/109/35
f 79/91/36 80/116/39 56/115/39 55/90/36
f 80/118/35 84/100/35 60/97/35 56/117/35
f 82/120/40 81/108/38 57/105/38 58/119/40
f 83/99/37 82/120/40 58/119/40 59/98/37

