# WaveFront *.obj file (generated by CINEMA 4D)

mtllib ./L3.mtl

v -345.66458129882812 0.00000000000008 -50
v -345.66458129882812 150 -50
v -345.66458129882812 0.00000000000011 50
v -345.66458129882812 150 50
v -295.66458129882812 -0.00000000000006 100
v -295.66458129882812 150 100
v -195.66458129882812 -0.00000000000005 100
v -195.66458129882812 150 100
v -301.59280395507812 150 -43.37948608398438
v -258.498291015625 150 -22.07390594482422
v -223.59068298339844 150 12.83371257781982
v -202.28509521484375 150 55.9282112121582
v -330.9739990234375 150 52.20683670043945
v -316.60916137695312 150 59.30869674682617
v -304.9732666015625 150 70.94457244873047
v -297.87142944335938 150 85.30940246582031
v -330.064697265625 1.53663349151611 49.30977249145508
v -314.83697509765625 1.54063272476196 56.83823776245117
v -302.5028076171875 1.54063272476196 69.17238616943359
v -294.974365234375 1.53663349151611 84.40011596679688
v -302.5020751953125 1.53663349151611 -40.482421875
v -260.27047729492188 1.54063272476196 -19.60344505310059
v -226.06114196777344 1.54063272476196 14.60589408874512
v -205.18215942382812 1.53663349151611 56.83749771118164
v -346.11026000976562 3 -47.03328704833984
v -346.11026000976562 150 -47.03328704833984
v -345.21893310546875 3 47.03328704833984
v -345.21893310546875 150 47.03328704833984
v -292.6978759765625 3 99.55433654785156
v -292.6978759765625 150 99.55433654785156
v -198.63130187988281 3 100.44566345214844
v -198.63130187988281 150 100.44566345214844
v -302.5020751953125 150 -40.482421875
v -260.27047729492188 150 -19.60344505310059
v -226.06114196777344 150 14.60589408874512
v -205.18215942382812 150 56.83749771118164
v -330.064697265625 150 49.30977249145508
v -314.83697509765625 150 56.83823776245117
v -302.5028076171875 150 69.17238616943359
v -294.974365234375 150 84.40011596679688
v -330.9739990234375 0.00000000000005 52.20683670043945
v -316.60916137695312 0.0000000000001 59.30869674682617
v -304.9732666015625 -0.00000000000001 70.94457244873047
v -297.87142944335938 -0.00000000000003 85.30940246582031
v -301.59280395507812 0.00000000000001 -43.37948608398438
v -258.498291015625 0.00000000000008 -22.07390594482422
v -223.59068298339844 0.00000000000001 12.83371257781982
v -202.28509521484375 -0.00000000000006 55.9282112121582
v 100 -0.00000000000001 -50
v 100 150 -50
v 100 -0.00000000000012 50
v 100 150 50
v 50 -0.0000000000001 100
v 50 150 100
v -50 -0.0000000000001 100
v -50 150 100
v 55.9282112121582 150 -43.37948608398438
v 12.83371257781982 150 -22.07390594482422
v -22.07390594482422 150 12.83371257781982
v -43.37948608398438 150 55.9282112121582
v 85.30940246582031 150 52.20683670043945
v 70.94457244873047 150 59.30869674682617
v 59.30869674682617 150 70.94457244873047
v 52.20683670043945 150 85.30940246582031
v 84.40011596679688 1.53663349151611 49.30977249145508
v 69.17238616943359 1.54063272476196 56.83823776245117
v 56.83823776245117 1.54063272476196 69.17238616943359
v 49.30977249145508 1.53663349151611 84.40011596679688
v 56.83749771118164 1.53663349151611 -40.482421875
v 14.60589408874512 1.54063272476196 -19.60344505310059
v -19.60344505310059 1.54063272476196 14.60589408874512
v -40.482421875 1.53663349151611 56.83749771118164
v 100.44566345214844 3 -47.03328704833984
v 100.44566345214844 150 -47.03328704833984
v 99.55433654785156 3 47.03328704833984
v 99.55433654785156 150 47.03328704833984
v 47.03328704833984 3 99.55433654785156
v 47.03328704833984 150 99.55433654785156
v -47.03328704833984 3 100.44566345214844
v -47.03328704833984 150 100.44566345214844
v 56.83749771118164 150 -40.482421875
v 14.60589408874512 150 -19.60344505310059
v -19.60344505310059 150 14.60589408874512
v -40.482421875 150 56.83749771118164
v 84.40011596679688 150 49.30977249145508
v 69.17238616943359 150 56.83823776245117
v 56.83823776245117 150 69.17238616943359
v 49.30977249145508 150 84.40011596679688
v 85.30940246582031 -0.00000000000013 52.20683670043945
v 70.94457244873047 -0.00000000000012 59.30869674682617
v 59.30869674682617 -0.00000000000014 70.94457244873047
v 52.20683670043945 -0.0000000000001 85.30940246582031
v 55.9282112121582 -0.00000000000009 -43.37948608398438
v 12.83371257781982 -0 -22.07390594482422
v -22.07390594482422 -0.00000000000004 12.83371257781982
v -43.37948608398438 -0.00000000000008 55.9282112121582
# 96 vertices

vn -0.14855439960957 0 -0.98890423774719
vn -0.29946196079254 0 -0.95410823822021
vn 0.00693773897365 0.99948501586914 -0.03133057430387
vn 0.01395016815513 0.99793070554733 -0.06276674568653
vn -0.58288490772247 0 -0.8125547170639
vn -0.03203761577606 0.99948424100876 0.00220461445861
vn -0.06419087946415 0.99792766571045 0.00446691270918
vn -0.00004095193799 1 0.00006908518117
vn 0.95410823822021 0 0.29946202039719
vn 0.81255465745926 0 0.58288502693176
vn -0.8125547170639 0 -0.58288490772247
vn 0.29946202039719 0 0.95410823822021
vn 0.14855426549912 0 0.98890423774719
vn -0.95410823822021 0 -0.29946196079254
vn 0.00007450477278 1 -0.00002998977106
vn -0.98890423774719 0 -0.14855439960957
vn 0.98890423774719 0 0.14855425059795
vn 0.58288502693176 0 0.81255465745926
vn 0.14855422079563 0 0.98890423774719
vn -0 -1 0
vn 0 -1 0
vn -0 -1 -0
vn 0 -1 -0
vn -0 -1 -0
vn -0.95410823822021 0 -0.29946202039719
vn -0.81255465745926 0 -0.58288502693176
vn -0.29946202039719 0 -0.95410823822021
vn -0.1485543102026 0 -0.98890423774719
vn -0 -1 -0
vn 0.98890423774719 0 0.14855422079563
vn -0.98890423774719 0 -0.1485543102026
vn -0.58288502693176 0 -0.81255465745926
vn 0.99739307165146 -0.00229390896857 -0.07212357223034
vn 0.98890423774719 0 -0.14855445921421
vn 0 1 0
vn -0.07212357223034 0.00229390524328 0.99739307165146
vn -0.00000000000001 1 -0
vn -0 1 -0
vn -0.14855445921421 0 0.98890423774719
vn -0.00000000000001 1 -0.00000000000001
# 40 normals

vt 0.95714896917343 0.67658632993698 0
vt 0.95714896917343 0.98727309703827 0
vt 0.99098181724548 0.98727309703827 0
vt 0.99098181724548 0.67349350452423 0
vt 0.02463841810822 0.1027843952179 0
vt 0.22510546445847 0.04453039169312 0
vt 0.22002305090427 0.01250171661377 0
vt 0.0100131733343 0.01061797142029 0
vt 0.71585595607758 0.00853729248047 0
vt 0.71585595607758 0.3223170042038 0
vt 0.7326637506485 0.3223170042038 0
vt 0.7326637506485 0.00854575634003 0
vt 0.30344697833061 0.11869442462921 0
vt 0.24191161990166 0.30847156047821 0
vt 0.33926972746849 0.3223170042038 0
vt 0.33727979660034 0.12350583076477 0
vt 0.0712521225214 0.19204163551331 0
vt 0.24191325902939 0.07671451568604 0
vt 0.38318821787834 0.34263920783997 0
vt 0.38318821787834 0.65641885995865 0
vt 0.42980191111565 0.65641885995865 0
vt 0.42980191111565 0.34264767169952 0
vt 0.76020056009293 0.3223170042038 0
vt 0.76020056009293 0.00854575634003 0
vt 0.60046142339706 0.34263920783997 0
vt 0.60046142339706 0.65641885995865 0
vt 0.6978195309639 0.65641885995865 0
vt 0.6978195309639 0.34573209285736 0
vt 0.7941974401474 0.3223170042038 0
vt 0.7941974401474 0.00853729248047 0
vt 0.26945006847382 0.10278284549713 0
vt 0.1476267427206 0.26434350013733 0
vt 0.82803028821945 0.3223170042038 0
vt 0.82803028821945 0.01163017749786 0
vt 0.36856296658516 0.34573209285736 0
vt 0.36856296658516 0.65641885995865 0
vt 0.50617653131485 0.34264767169952 0
vt 0.50617653131485 0.65641885995865 0
vt 0.99098181724548 0.65641885995865 0
vt 0.99098181724548 0.33939158916473 0
vt 0.9581840634346 0.33939158916473 0
vt 0.9581840634346 0.65641885995865 0
vt 0.5911180973053 0.95947200059891 0
vt 0.37771528959274 0.89737439155579 0
vt 0.36293455958366 0.99052077531815 0
vt 0.58619117736816 0.99052077531815 0
vt 0.6978195309639 0.32556462287903 0
vt 0.6978195309639 0.00853729248047 0
vt 0.68196415901184 0.00853729248047 0
vt 0.68196415901184 0.32556462287903 0
vt 0.59942632913589 0.68748605251312 0
vt 0.66502177715302 0.8895092010498 0
vt 0.6978195309639 0.88484501838684 0
vt 0.6978195309639 0.67349350452423 0
vt 0.60697346925735 0.92911171913147 0
vt 0.42528140544891 0.80629348754883 0
vt 0.33011740446091 0.65641885995865 0
vt 0.33011740446091 0.33939158916473 0
vt 0.28255128860474 0.33939158916473 0
vt 0.28255128860474 0.65641885995865 0
vt 0.65598630905151 0.00853729248047 0
vt 0.65598630905151 0.32556462287903 0
vt 0.10840637981892 0.65641885995865 0
vt 0.10840637981892 0.33939158916473 0
vt 0.0100131733343 0.33939158916473 0
vt 0.0100131733343 0.65641885995865 0
vt 0.62391585111618 0.00853729248047 0
vt 0.62391585111618 0.32556462287903 0
vt 0.50321501493454 0.73251569271088 0
vt 0.63295137882233 0.90451908111572 0
vt 0.5911180973053 0.00853729248047 0
vt 0.5911180973053 0.32556462287903 0
vt 0.34489816427231 0.65641885995865 0
vt 0.34489816427231 0.33939158916473 0
vt 0.20461770892143 0.65641885995865 0
vt 0.20461770892143 0.33939158916473 0
vt 0.71585595607758 0.33939158916473 0
vt 0.71585595607758 0.65641885995865 0
vt 0.72247934341431 0.65641885995865 0
vt 0.72247934341431 0.34573209285736 0
vt 0.57308173179626 0.31929445266724 0
vt 0.54028397798538 0.31463027000427 0
vt 0.53825390338898 0.32075321674347 0
vt 0.57208675146103 0.32556462287903 0
vt 0.9391126036644 0.67349350452423 0
vt 0.71585595607758 0.67349350452423 0
vt 0.72247934341431 0.67983400821686 0
vt 0.93248921632767 0.67983400821686 0
vt 0.50821352005005 0.29962038993835 0
vt 0.5042570233345 0.30484175682068 0
vt 0.9391126036644 0.33939158916473 0
vt 0.93248921632767 0.34573209285736 0
vt 0.02379893697798 0.76758182048798 0
vt 0.07136506587267 0.85866266489029 0
vt 0.0768805295229 0.85491716861725 0
vt 0.03026683069766 0.76565998792648 0
vt 0.48223567008972 0.27502775192261 0
vt 0.47672021389008 0.27877330780029 0
vt 0.9391126036644 0.65641885995865 0
vt 0.93248921632767 0.65641885995865 0
vt 0.24550996720791 0.97747015953064 0
vt 0.34390318393707 0.99146270751953 0
vt 0.34489816427231 0.98519247770309 0
vt 0.24754002690315 0.9713471531868 0
vt 0.46638029813766 0.24466753005981 0
vt 0.45991241931915 0.24658930301666 0
vt 0.9391126036644 0.99052077531815 0
vt 0.93248921632767 0.99052077531815 0
vt 0.46145337820053 0.21361863613129 0
vt 0.4548299908638 0.21456062793732 0
vt 0.71585595607758 0.99052077531815 0
vt 0.72247934341431 0.99052077531815 0
vt 0.00901820138097 0.67443537712097 0
vt 0.01564158499241 0.67349350452423 0
vt 0.14929863810539 0.93244045972824 0
vt 0.1532551497221 0.92721909284592 0
# 116 texture coordinates

o L3
usemtl WALL
f 65/4/2 85/3/2 76/2/1 75/1/1
f 66/12/5 86/11/5 85/10/2 65/9/2
f 71/22/10 83/21/10 84/20/9 72/19/9
f 67/24/11 87/23/11 86/11/5 66/12/5
f 73/28/13 74/27/13 81/26/12 69/25/12
f 68/30/14 88/29/14 87/23/11 67/24/11
f 77/34/16 78/33/16 88/29/14 68/30/14
f 72/19/9 84/20/9 80/36/17 79/35/17
f 69/25/12 81/26/12 82/38/18 70/37/18
f 70/37/18 82/38/18 83/21/10 71/22/10

usemtl FLOOR
f 79/8/4 77/7/4 68/6/3 72/5/3
f 75/16/7 73/15/7 69/14/6 65/13/6
f 72/5/3 68/6/3 67/18/8 71/17/8
f 70/32/15 66/31/15 65/13/6 69/14/6
f 71/17/8 67/18/8 66/31/15 70/32/15

usemtl OTHER
f 61/42/12 89/41/12 51/40/19 52/39/19
f 53/46/21 55/45/21 96/44/20 92/43/20
f 62/50/18 90/49/18 89/48/12 61/47/12
f 49/54/23 51/53/23 89/52/22 93/51/22
f 92/43/20 96/44/20 95/56/24 91/55/24
f 59/60/26 95/59/26 96/58/25 60/57/25
f 63/62/10 91/61/10 90/49/18 62/50/18
f 50/66/28 49/65/28 93/64/27 57/63/27
f 64/68/9 92/67/9 91/61/10 63/62/10
f 90/70/29 94/69/29 93/51/22 89/52/22
f 54/72/30 53/71/30 92/67/9 64/68/9
f 60/57/25 96/58/25 55/74/31 56/73/31
f 57/63/27 93/64/27 94/76/32 58/75/32
f 58/75/32 94/76/32 95/59/26 59/60/26
f 91/55/24 95/56/24 94/69/29 90/70/29
f 75/80/33 76/79/34 52/78/34 51/77/33
f 76/84/35 85/83/35 61/82/35 52/81/35
f 77/88/36 79/87/36 55/86/36 53/85/36
f 85/83/35 86/90/35 62/89/35 61/82/35
f 73/92/33 75/80/33 51/77/33 49/91/33
f 84/96/35 83/95/37 59/94/37 60/93/35
f 86/90/35 87/98/35 63/97/35 62/89/35
f 74/100/34 73/92/33 49/91/33 50/99/34
f 81/104/38 74/103/35 50/102/35 57/101/38
f 87/98/35 88/106/35 64/105/35 63/97/35
f 78/108/39 77/88/36 53/85/36 54/107/39
f 88/106/35 78/110/35 54/109/35 64/105/35
f 79/87/36 80/112/39 56/111/39 55/86/36
f 80/114/35 84/96/35 60/93/35 56/113/35
f 82/116/40 81/104/38 57/101/38 58/115/40
f 83/95/37 82/116/40 58/115/40 59/94/37

