# Blender v2.81 (sub 16) OBJ File: 'blocks.blend'
# www.blender.org
mtllib left.mtl
o left_Cube.004
v 2.051916 -0.728000 -0.946622
v 2.051916 0.700000 -0.946622
v 3.000000 0.700000 -1.040000
v 3.000000 -0.728000 -1.040000
v 0.273693 -0.728002 3.277423
v 0.273693 0.699998 3.277423
v 0.220281 0.699998 3.819719
v 0.220281 -0.728002 3.819719
v 3.000000 -0.728000 1.040000
v 2.457704 -0.728000 1.093411
v -1.859718 -0.728002 3.819719
v -1.766340 -0.728000 2.871635
v -1.489794 -0.728000 1.959985
v 0.431875 -0.728000 2.755966
v -1.040709 -0.728000 1.119804
v 0.688748 -0.728000 2.275390
v -0.436340 -0.728000 0.383379
v 1.034442 -0.728000 1.854161
v 0.300085 -0.728000 -0.220989
v 1.455671 -0.728000 1.508467
v 1.140266 -0.728000 -0.670076
v 1.936248 -0.728000 1.251594
v 3.000000 0.700000 1.040000
v 2.457704 0.700000 1.093411
v 1.936248 0.700000 1.251594
v 1.455671 0.700000 1.508467
v 1.034442 0.700000 1.854161
v 0.688748 0.700000 2.275390
v 0.431875 0.700000 2.755966
v -1.859718 0.699998 3.819719
v -1.766340 0.700000 2.871635
v -1.489794 0.700000 1.959985
v -1.040709 0.700000 1.119804
v -0.436340 0.700000 0.383379
v 0.300085 0.700000 -0.220989
v 1.140266 0.700000 -0.670076
v 2.059720 -0.700000 -0.907390
v 3.000000 -0.700000 -1.000000
v 3.000000 0.700000 -1.000000
v 2.059720 0.700000 -0.907390
v 0.234461 -0.700002 3.269619
v 0.180281 -0.700002 3.819719
v 0.180281 0.699998 3.819719
v 0.234461 0.699998 3.269619
v 2.449900 -0.700000 1.054180
v 3.000000 -0.700000 1.000000
v -1.819718 -0.700002 3.819719
v -1.727109 -0.700000 2.879439
v 0.394920 -0.700000 2.740659
v -1.452839 -0.700000 1.975292
v 0.655489 -0.700000 2.253167
v -1.007450 -0.700000 1.142027
v 1.006158 -0.700000 1.825876
v -0.408056 -0.700000 0.411663
v 1.433448 -0.700000 1.475208
v 0.322308 -0.700000 -0.187731
v 1.920940 -0.700000 1.214638
v 1.155573 -0.700000 -0.633120
v 2.449900 0.700000 1.054180
v 3.000000 0.700000 1.000000
v 1.920940 0.700000 1.214638
v 1.433448 0.700000 1.475208
v 1.006158 0.700000 1.825876
v 0.655489 0.700000 2.253167
v 0.394920 0.700000 2.740659
v -1.727109 0.700000 2.879439
v -1.819718 0.699998 3.819719
v -1.452839 0.700000 1.975292
v -1.007450 0.700000 1.142027
v -0.408056 0.700000 0.411663
v 0.322308 0.700000 -0.187731
v 1.155573 0.700000 -0.633120
vt 0.974003 0.509120
vt 0.991941 0.509120
vt 0.991941 0.518329
vt 0.974003 0.518329
vt 0.883914 0.536667
vt 0.901852 0.536667
vt 0.901852 0.542972
vt 0.883914 0.542972
vt 0.894202 0.447369
vt 0.901794 0.438807
vt 0.920270 0.455907
vt 0.915927 0.460805
vt 0.901794 0.518714
vt 0.894202 0.510152
vt 0.915927 0.496716
vt 0.920270 0.501614
vt 0.888561 0.500383
vt 0.912700 0.491129
vt 0.885087 0.489784
vt 0.910713 0.485066
vt 0.883914 0.478761
vt 0.910042 0.478761
vt 0.885087 0.467737
vt 0.910713 0.472455
vt 0.888561 0.457138
vt 0.912700 0.466393
vt 0.991941 0.542588
vt 0.974003 0.542588
vt 0.974003 0.536282
vt 0.991941 0.536282
vt 0.974003 0.529977
vt 0.991941 0.529977
vt 0.974003 0.523915
vt 0.991941 0.523915
vt 0.974003 0.518329
vt 0.991941 0.518329
vt 0.883914 0.518714
vt 0.901852 0.518714
vt 0.901852 0.524300
vt 0.883914 0.524300
vt 0.901852 0.530362
vt 0.883914 0.530362
vt 0.974003 0.438807
vt 0.991941 0.438807
vt 0.991941 0.446639
vt 0.974003 0.446639
vt 0.991941 0.455849
vt 0.974003 0.455849
vt 0.991941 0.466082
vt 0.974003 0.466082
vt 0.991941 0.476946
vt 0.974003 0.476946
vt 0.991941 0.488023
vt 0.974003 0.488023
vt 0.991941 0.498886
vt 0.974003 0.498886
vt 0.955767 0.542436
vt 0.955767 0.518714
vt 0.956119 0.519170
vt 0.956119 0.541980
vt 0.973706 0.518714
vt 0.973706 0.519170
vt 0.973706 0.542436
vt 0.973706 0.541980
vt 0.973648 0.518714
vt 0.966056 0.510152
vt 0.966473 0.509894
vt 0.974003 0.518385
vt 0.919790 0.542436
vt 0.901852 0.542436
vt 0.901852 0.541980
vt 0.919438 0.541980
vt 0.919790 0.518714
vt 0.919438 0.519170
vt 0.901852 0.518714
vt 0.901852 0.519170
vt 0.948586 0.518385
vt 0.944243 0.523283
vt 0.943825 0.523025
vt 0.948230 0.518057
vt 0.966056 0.447369
vt 0.973648 0.438807
vt 0.974003 0.439136
vt 0.966473 0.447628
vt 0.960414 0.457138
vt 0.960879 0.457316
vt 0.956940 0.467737
vt 0.957433 0.467828
vt 0.955767 0.478761
vt 0.956270 0.478761
vt 0.956940 0.489784
vt 0.957433 0.489693
vt 0.960414 0.500383
vt 0.960879 0.500205
vt 0.944243 0.559194
vt 0.948586 0.564092
vt 0.948230 0.564421
vt 0.943825 0.559453
vt 0.941016 0.553607
vt 0.940552 0.553785
vt 0.939029 0.547544
vt 0.938537 0.547634
vt 0.938358 0.541239
vt 0.937856 0.541239
vt 0.939029 0.534933
vt 0.938537 0.534843
vt 0.941016 0.528871
vt 0.940552 0.528693
vt 0.574906 0.885940
vt 0.862410 0.885940
vt 0.862410 0.984988
vt 0.574906 0.984988
vt 0.574906 0.104374
vt 0.862410 0.104374
vt 0.862410 0.196035
vt 0.574906 0.196035
vt 0.862410 0.306332
vt 0.574906 0.306332
vt 0.862410 0.421359
vt 0.574906 0.421359
vt 0.862410 0.538797
vt 0.574906 0.538797
vt 0.862410 0.657347
vt 0.574906 0.657347
vt 0.862410 0.775692
vt 0.574906 0.775692
vt 0.248292 0.885940
vt 0.248292 0.984988
vt 0.006379 0.984988
vt 0.006379 0.885940
vt 0.290881 0.196035
vt 0.290881 0.104374
vt 0.532794 0.104374
vt 0.532794 0.196035
vt 0.290881 0.984988
vt 0.290881 0.885940
vt 0.532794 0.885940
vt 0.532794 0.984988
vt 0.290881 0.775692
vt 0.532794 0.775692
vt 0.290881 0.657347
vt 0.532794 0.657347
vt 0.290881 0.538797
vt 0.532794 0.538797
vt 0.290881 0.421359
vt 0.532794 0.421359
vt 0.290881 0.306332
vt 0.532794 0.306332
vt 0.248292 0.104374
vt 0.248292 0.196035
vt 0.006379 0.196035
vt 0.006379 0.104374
vt 0.248292 0.306332
vt 0.006379 0.306332
vt 0.248292 0.421359
vt 0.006379 0.421359
vt 0.248292 0.538797
vt 0.006379 0.538797
vt 0.248292 0.657347
vt 0.006379 0.657347
vt 0.248292 0.775692
vt 0.006379 0.775692
vn -0.0980 0.0000 -0.9952
vn 0.9952 0.0000 0.0980
vn -0.0000 -1.0000 -0.0000
vn 0.0980 -0.0000 0.9952
vn 0.2903 -0.0000 0.9569
vn 0.4714 -0.0000 0.8819
vn 0.6344 -0.0000 0.7730
vn 0.7730 -0.0000 0.6344
vn 0.8819 0.0000 0.4714
vn 0.9569 0.0000 0.2903
vn -0.9952 0.0000 -0.0980
vn -0.9569 0.0000 -0.2903
vn -0.8819 0.0000 -0.4714
vn -0.7730 0.0000 -0.6344
vn -0.6344 0.0000 -0.7730
vn -0.4714 0.0000 -0.8819
vn -0.2903 0.0000 -0.9569
vn 0.0000 0.0000 1.0000
vn 0.0000 1.0000 0.0000
vn 1.0000 0.0000 0.0000
usemtl Other
s 1
f 1/1/1 2/2/1 3/3/1 4/4/1
f 5/5/2 6/6/2 7/7/2 8/8/2
f 1/9/3 4/10/3 9/11/3 10/12/3
f 11/13/3 12/14/3 5/15/3 8/16/3
f 12/14/3 13/17/3 14/18/3 5/15/3
f 13/17/3 15/19/3 16/20/3 14/18/3
f 15/19/3 17/21/3 18/22/3 16/20/3
f 17/21/3 19/23/3 20/24/3 18/22/3
f 19/23/3 21/25/3 22/26/3 20/24/3
f 21/25/3 1/9/3 10/12/3 22/26/3
f 9/27/4 23/28/4 24/29/4 10/30/4
f 10/30/5 24/29/5 25/31/5 22/32/5
f 22/32/6 25/31/6 26/33/6 20/34/6
f 20/34/7 26/33/7 27/35/7 18/36/7
f 18/37/8 27/38/8 28/39/8 16/40/8
f 16/40/9 28/39/9 29/41/9 14/42/9
f 14/42/10 29/41/10 6/6/10 5/5/10
f 11/43/11 30/44/11 31/45/11 12/46/11
f 12/46/12 31/45/12 32/47/12 13/48/12
f 13/48/13 32/47/13 33/49/13 15/50/13
f 15/50/14 33/49/14 34/51/14 17/52/14
f 17/52/15 34/51/15 35/53/15 19/54/15
f 19/54/16 35/53/16 36/55/16 21/56/16
f 21/56/17 36/55/17 2/2/17 1/1/17
f 11/57/18 8/58/18 42/59/18 47/60/18
f 8/58/18 7/61/18 43/62/18 42/59/18
f 30/63/18 11/57/18 47/60/18 67/64/18
f 3/65/19 2/66/19 40/67/19 39/68/19
f 4/69/20 3/70/20 39/71/20 38/72/20
f 9/73/20 4/69/20 38/72/20 46/74/20
f 23/75/20 9/73/20 46/74/20 60/76/20
f 7/77/19 6/78/19 44/79/19 43/80/19
f 31/81/19 30/82/19 67/83/19 66/84/19
f 32/85/19 31/81/19 66/84/19 68/86/19
f 33/87/19 32/85/19 68/86/19 69/88/19
f 34/89/19 33/87/19 69/88/19 70/90/19
f 35/91/19 34/89/19 70/90/19 71/92/19
f 36/93/19 35/91/19 71/92/19 72/94/19
f 2/66/19 36/93/19 72/94/19 40/67/19
f 24/95/19 23/96/19 60/97/19 59/98/19
f 25/99/19 24/95/19 59/98/19 61/100/19
f 26/101/19 25/99/19 61/100/19 62/102/19
f 27/103/19 26/101/19 62/102/19 63/104/19
f 28/105/19 27/103/19 63/104/19 64/106/19
f 29/107/19 28/105/19 64/106/19 65/108/19
f 6/78/19 29/107/19 65/108/19 44/79/19
usemtl MatF
f 37/109/19 45/110/19 46/111/19 38/112/19
f 47/113/19 42/114/19 41/115/19 48/116/19
f 48/116/19 41/115/19 49/117/19 50/118/19
f 50/118/19 49/117/19 51/119/19 52/120/19
f 52/120/19 51/119/19 53/121/19 54/122/19
f 54/122/19 53/121/19 55/123/19 56/124/19
f 56/124/19 55/123/19 57/125/19 58/126/19
f 58/126/19 57/125/19 45/110/19 37/109/19
usemtl MatW
f 37/127/4 38/128/4 39/129/4 40/130/4
f 41/131/11 42/132/11 43/133/11 44/134/11
f 46/135/1 45/136/1 59/137/1 60/138/1
f 45/136/17 57/139/17 61/140/17 59/137/17
f 57/139/16 55/141/16 62/142/16 61/140/16
f 55/141/15 53/143/15 63/144/15 62/142/15
f 53/143/14 51/145/14 64/146/14 63/144/14
f 51/145/13 49/147/13 65/148/13 64/146/13
f 49/147/12 41/131/12 44/134/12 65/148/12
f 47/149/2 48/150/2 66/151/2 67/152/2
f 48/150/10 50/153/10 68/154/10 66/151/10
f 50/153/9 52/155/9 69/156/9 68/154/9
f 52/155/8 54/157/8 70/158/8 69/156/8
f 54/157/7 56/159/7 71/160/7 70/158/7
f 56/159/6 58/161/6 72/162/6 71/160/6
f 58/161/5 37/127/5 40/130/5 72/162/5
