# WaveFront *.obj file (generated by CINEMA 4D)

mtllib ./R1.mtl

v -100 0.00000000000003 -50
v -100 150 -50
v -100 0 50
v -100 150 50
v -50 0.00000000000001 100
v -50 150 100
v 50 0.00000000000001 100
v 50 150 100
v -55.9282112121582 150 -43.37948608398438
v -12.83371257781982 150 -22.07390594482422
v 22.07390594482422 150 12.83371257781982
v 43.37948608398438 150 55.9282112121582
v -85.30940246582031 150 52.20683670043945
v -70.94457244873047 150 59.30869674682617
v -59.30869674682617 150 70.94457244873047
v -52.20683670043945 150 85.30940246582031
v -84.40011596679688 1.53663349151611 49.30977249145508
v -69.17238616943359 1.54063272476196 56.83823776245117
v -56.83823776245117 1.54063272476196 69.17238616943359
v -49.30977249145508 1.53663349151611 84.40011596679688
v -56.83749771118164 1.53663349151611 -40.482421875
v -14.60589408874512 1.54063272476196 -19.60344505310059
v 19.60344505310059 1.54063272476196 14.60589408874512
v 40.482421875 1.53663349151611 56.83749771118164
v -100.44566345214844 3 -47.03328704833984
v -100.44566345214844 150 -47.03328704833984
v -99.55433654785156 3 47.03328704833984
v -99.55433654785156 150 47.03328704833984
v -47.03328704833984 3 99.55433654785156
v -47.03328704833984 150 99.55433654785156
v 47.03328704833984 3 100.44566345214844
v 47.03328704833984 150 100.44566345214844
v -56.83749771118164 150 -40.482421875
v -14.60589408874512 150 -19.60344505310059
v 19.60344505310059 150 14.60589408874512
v 40.482421875 150 56.83749771118164
v -84.40011596679688 150 49.30977249145508
v -69.17238616943359 150 56.83823776245117
v -56.83823776245117 150 69.17238616943359
v -49.30977249145508 150 84.40011596679688
v -85.30940246582031 0.00000000000001 52.20683670043945
v -70.94457244873047 0.00000000000004 59.30869674682617
v -59.30869674682617 0.00000000000001 70.94457244873047
v -52.20683670043945 0.00000000000001 85.30940246582031
v -55.9282112121582 0 -43.37948608398438
v -12.83371257781982 0.00000000000004 -22.07390594482422
v 22.07390594482422 0.00000000000001 12.83371257781982
v 43.37948608398438 0.00000000000001 55.9282112121582
# 48 vertices

vn 0.14855439960957 0 -0.98890423774719
vn 0.29946196079254 0 -0.95410823822021
vn -0.00693773897365 0.99948501586914 -0.03133057430387
vn -0.01395016815513 0.99793070554733 -0.06276674568653
vn 0.58288490772247 0 -0.8125547170639
vn 0.03203761577606 0.99948424100876 0.00220461445861
vn 0.06419087946415 0.99792766571045 0.00446691270918
vn 0.00004095193799 1 0.00006908518117
vn -0.95410823822021 0 0.29946202039719
vn -0.81255465745926 0 0.58288502693176
vn 0.8125547170639 0 -0.58288490772247
vn -0.29946202039719 0 0.95410823822021
vn -0.14855426549912 0 0.98890423774719
vn 0.95410823822021 0 -0.29946196079254
vn -0.00007450477278 1 -0.00002998977106
vn 0.98890423774719 0 -0.14855439960957
vn -0.98890423774719 0 0.14855425059795
vn -0.58288502693176 0 0.81255465745926
vn -0.14855422079563 0 0.98890423774719
vn -0 -1 0
vn 0 -1 0
vn 0 -1 0
vn -0 -1 -0
vn -0 -1 -0
vn 0.95410823822021 0 -0.29946202039719
vn 0.81255465745926 0 -0.58288502693176
vn 0.29946202039719 0 -0.95410823822021
vn 0.1485543102026 0 -0.98890423774719
vn 0 -1 -0
vn -0.98890423774719 0 0.14855422079563
vn 0.98890423774719 0 -0.1485543102026
vn 0.58288502693176 0 -0.81255465745926
vn -0.99739307165146 -0.00229390896857 -0.07212357223034
vn -0.98890423774719 0 -0.14855445921421
vn 0 1 0
vn 0.07212357223034 0.00229390524328 0.99739307165146
vn -0 1 -0
vn 0 1 -0
vn 0.14855445921421 0 0.98890423774719
vn 0 1 -0
# 40 normals

vt 0.62613695859909 0.01185739040375 0
vt 0.59450739622116 0.0087798833847 0
vt 0.59450739622116 0.321009516716 0
vt 0.62613695859909 0.321009516716 0
vt 0.63428926467896 0.76653289794922 0
vt 0.64796209335327 0.67482167482376 0
vt 0.45162838697433 0.6766961812973 0
vt 0.44687697291374 0.70856666564941 0
vt 0.34065771102905 0.0087798833847 0
vt 0.32494446635246 0.00878822803497 0
vt 0.32494446635246 0.321009516716 0
vt 0.34065771102905 0.321009516716 0
vt 0.37363716959953 0.78236424922943 0
vt 0.3420076072216 0.78715193271637 0
vt 0.3401472568512 0.98498094081879 0
vt 0.43116524815559 0.97120398283005 0
vt 0.59071111679077 0.85534912347794 0
vt 0.43116369843483 0.74059170484543 0
vt 0.86851298809052 0.67482167482376 0
vt 0.7803680896759 0.67483007907867 0
vt 0.7803680896759 0.98705124855042 0
vt 0.86851298809052 0.98705124855042 0
vt 0.29920089244843 0.00878822803497 0
vt 0.29920089244843 0.321009516716 0
vt 0.44910261034966 0.0087798833847 0
vt 0.35808461904526 0.01185739040375 0
vt 0.35808461904526 0.321009516716 0
vt 0.44910261034966 0.321009516716 0
vt 0.26741790771484 0.0087798833847 0
vt 0.26741790771484 0.321009516716 0
vt 0.51931011676788 0.92729395627975 0
vt 0.40542012453079 0.76653134822845 0
vt 0.23578834533691 0.01185739040375 0
vt 0.23578834533691 0.321009516716 0
vt 0.95953100919724 0.67789924144745 0
vt 0.95953100919724 0.98705124855042 0
vt 0.70896714925766 0.67483007907867 0
vt 0.66538900136948 0.67482167482376 0
vt 0.66538900136948 0.98705124855042 0
vt 0.70896714925766 0.98705124855042 0
vt 0.73403233289719 0.32424116134644 0
vt 0.76469421386719 0.32424116134644 0
vt 0.76469421386719 0.0087798833847 0
vt 0.73403233289719 0.0087798833847 0
vt 0.10939647257328 0.62636661529541 0
vt 0.11400253325701 0.65726202726364 0
vt 0.32272034883499 0.65726202726364 0
vt 0.30890214443207 0.5645757317543 0
vt 0.89153373241425 0.65726202726364 0
vt 0.90635657310486 0.65726202726364 0
vt 0.90635657310486 0.34180080890656 0
vt 0.89153373241425 0.34180080890656 0
vt 0.10162930935621 0.35572421550751 0
vt 0.00964363664389 0.34180080890656 0
vt 0.00964363664389 0.55210828781128 0
vt 0.04030552506447 0.55674940347672 0
vt 0.09457362443209 0.59615623950958 0
vt 0.26443359255791 0.47394478321075 0
vt 0.44068923592567 0.65726202726364 0
vt 0.5306351184845 0.65726202726364 0
vt 0.5306351184845 0.34180080890656 0
vt 0.44068923592567 0.34180080890656 0
vt 0.93064266443253 0.65726202726364 0
vt 0.93064266443253 0.34180080890656 0
vt 0.78212112188339 0.32424116134644 0
vt 0.8741067647934 0.32424116134644 0
vt 0.8741067647934 0.0087798833847 0
vt 0.78212112188339 0.0087798833847 0
vt 0.96062463521957 0.65726202726364 0
vt 0.96062463521957 0.34180080890656 0
vt 0.07028748840094 0.57168513536453 0
vt 0.19157519936562 0.40053141117096 0
vt 0.99128651618958 0.65726202726364 0
vt 0.99128651618958 0.34180080890656 0
vt 0.34870356321335 0.65726202726364 0
vt 0.34870356321335 0.34180080890656 0
vt 0.60349351167679 0.65726202726364 0
vt 0.64796209335327 0.65726202726364 0
vt 0.64796209335327 0.34180080890656 0
vt 0.60349351167679 0.34180080890656 0
vt 0.8741067647934 0.34180080890656 0
vt 0.8679147362709 0.34810996055603 0
vt 0.8679147362709 0.65726202726364 0
vt 0.8741067647934 0.65726202726364 0
vt 0.46652954816818 0.31477022171021 0
vt 0.46745970845222 0.321009516716 0
vt 0.49908927083015 0.31622183322906 0
vt 0.49719142913818 0.31012904644012 0
vt 0.00964363664389 0.0087798833847 0
vt 0.01583569310606 0.01508903503418 0
vt 0.2121693789959 0.01508903503418 0
vt 0.21836143732071 0.0087798833847 0
vt 0.53087222576141 0.30038893222809 0
vt 0.52717339992523 0.29519331455231 0
vt 0.66538900136948 0.34180080890656 0
vt 0.67158102989197 0.34810996055603 0
vt 0.30890214443207 0.76844519376755 0
vt 0.30285546183586 0.76653289794922 0
vt 0.25927731394768 0.85534912347794 0
vt 0.26443359255791 0.8590761423111 0
vt 0.55661582946777 0.27444922924042 0
vt 0.55145955085754 0.2707222700119 0
vt 0.66538900136948 0.65726202726364 0
vt 0.67158102989197 0.65726202726364 0
vt 0.10162930935621 0.97729671001434 0
vt 0.09973146021366 0.97120398283005 0
vt 0.00871345866472 0.98498094081879 0
vt 0.00964363664389 0.99122017621994 0
vt 0.57232904434204 0.24242424964905 0
vt 0.56628239154816 0.24051189422607 0
vt 0.00964363664389 0.32424116134644 0
vt 0.01583569310606 0.32424116134644 0
vt 0.57708048820496 0.21055376529694 0
vt 0.57088845968246 0.20961654186249 0
vt 0.2121693789959 0.32424116134644 0
vt 0.21836143732071 0.32424116134644 0
vt 0.32272034883499 0.67575889825821 0
vt 0.31652829051018 0.67482167482376 0
vt 0.19157519936562 0.93248951435089 0
vt 0.18787632882595 0.92729395627975 0
# 120 texture coordinates

o R1
usemtl WALL
f 28/4/1 37/3/2 17/2/2 27/1/1
f 37/12/2 38/11/5 18/10/5 17/9/2
f 36/22/9 35/21/10 23/20/10 24/19/9
f 38/11/5 39/24/11 19/23/11 18/10/5
f 33/28/12 26/27/13 25/26/13 21/25/12
f 39/24/11 40/30/14 20/29/14 19/23/11
f 40/30/14 30/34/16 29/33/16 20/29/14
f 32/36/17 36/22/9 24/19/9 31/35/17
f 34/40/18 33/39/12 21/38/12 22/37/18
f 35/21/10 34/40/18 22/37/18 23/20/10

usemtl FLOOR
f 20/8/3 29/7/4 31/6/4 24/5/3
f 21/16/6 25/15/7 27/14/7 17/13/6
f 19/18/8 20/8/3 24/5/3 23/17/8
f 17/13/6 18/32/15 22/31/15 21/16/6
f 18/32/15 19/18/8 23/17/8 22/31/15

usemtl OTHER
f 3/44/19 41/43/12 13/42/12 4/41/19
f 48/48/20 7/47/21 5/46/21 44/45/20
f 41/52/12 42/51/18 14/50/18 13/49/12
f 41/56/22 3/55/23 1/54/23 45/53/22
f 47/58/24 48/48/20 44/45/20 43/57/24
f 48/62/25 47/61/26 11/60/26 12/59/25
f 42/51/18 43/64/10 15/63/10 14/50/18
f 45/68/27 1/67/28 2/66/28 9/65/27
f 43/64/10 44/70/9 16/69/9 15/63/10
f 45/53/22 46/72/29 42/71/29 41/56/22
f 44/70/9 5/74/30 6/73/30 16/69/9
f 7/76/31 48/62/25 12/59/25 8/75/31
f 46/80/32 45/79/27 9/78/27 10/77/32
f 47/61/26 46/80/32 10/77/32 11/60/26
f 46/72/29 47/58/24 43/57/24 42/71/29
f 4/84/34 28/83/34 27/82/33 3/81/33
f 13/88/35 37/87/35 28/86/35 4/85/35
f 7/92/36 31/91/36 29/90/36 5/89/36
f 14/94/35 38/93/35 37/87/35 13/88/35
f 3/81/33 27/82/33 25/96/33 1/95/33
f 11/100/37 35/99/37 36/98/35 12/97/35
f 15/102/35 39/101/35 38/93/35 14/94/35
f 1/95/33 25/96/33 26/104/34 2/103/34
f 2/108/35 26/107/35 33/106/38 9/105/38
f 16/110/35 40/109/35 39/101/35 15/102/35
f 5/89/36 29/90/36 30/112/39 6/111/39
f 6/114/35 30/113/35 40/109/35 16/110/35
f 8/116/39 32/115/39 31/91/36 7/92/36
f 12/97/35 36/98/35 32/118/35 8/117/35
f 9/105/38 33/106/38 34/120/40 10/119/40
f 10/119/40 34/120/40 35/99/37 11/100/37

