# WaveFront *.obj file (generated by CINEMA 4D)

mtllib ./R2.mtl

v 50 0.00000000000003 -100
v 50 150 -100
v -50 0 -100
v -50 150 -100
v -100 0.00000000000001 -50
v -100 150 -50
v -100 0.00000000000001 50
v -100 150 50
v 43.37948608398438 150 -55.9282112121582
v 22.07390594482422 150 -12.83371257781982
v -12.83371257781982 150 22.07390594482422
v -55.9282112121582 150 43.37948608398438
v -52.20683670043945 150 -85.30940246582031
v -59.30869674682617 150 -70.94457244873047
v -70.94457244873047 150 -59.30869674682617
v -85.30940246582031 150 -52.20683670043945
v -49.30977249145508 1.53663349151611 -84.40011596679688
v -56.83823776245117 1.54063272476196 -69.17238616943359
v -69.17238616943359 1.54063272476196 -56.83823776245117
v -84.40011596679688 1.53663349151611 -49.30977249145508
v 40.482421875 1.53663349151611 -56.83749771118164
v 19.60344505310059 1.54063272476196 -14.60589408874512
v -14.60589408874512 1.54063272476196 19.60344505310059
v -56.83749771118164 1.53663349151611 40.482421875
v 47.03328704833984 3 -100.44566345214844
v 47.03328704833984 150 -100.44566345214844
v -47.03328704833984 3 -99.55433654785156
v -47.03328704833984 150 -99.55433654785156
v -99.55433654785156 3 -47.03328704833984
v -99.55433654785156 150 -47.03328704833984
v -100.44566345214844 3 47.03328704833984
v -100.44566345214844 150 47.03328704833984
v 40.482421875 150 -56.83749771118164
v 19.60344505310059 150 -14.60589408874512
v -14.60589408874512 150 19.60344505310059
v -56.83749771118164 150 40.482421875
v -49.30977249145508 150 -84.40011596679688
v -56.83823776245117 150 -69.17238616943359
v -69.17238616943359 150 -56.83823776245117
v -84.40011596679688 150 -49.30977249145508
v -52.20683670043945 0.00000000000001 -85.30940246582031
v -59.30869674682617 0.00000000000004 -70.94457244873047
v -70.94457244873047 0.00000000000001 -59.30869674682617
v -85.30940246582031 0.00000000000001 -52.20683670043945
v 43.37948608398438 0 -55.9282112121582
v 22.07390594482422 0.00000000000004 -12.83371257781982
v -12.83371257781982 0.00000000000001 22.07390594482422
v -55.9282112121582 0.00000000000001 43.37948608398438
# 48 vertices

vn 0.98890423774719 0 0.14855439960957
vn 0.95410823822021 0 0.29946196079254
vn 0.03133057430387 0.99948501586914 -0.00693773897365
vn 0.06276674568653 0.99793070554733 -0.01395016815513
vn 0.8125547170639 0 0.58288490772247
vn -0.00220461445861 0.99948424100876 0.03203761577606
vn -0.00446691270918 0.99792766571045 0.06419087946415
vn -0.00006908518117 1 0.00004095193799
vn -0.29946202039719 0 -0.95410823822021
vn -0.58288502693176 0 -0.81255465745926
vn 0.58288490772247 0 0.8125547170639
vn -0.95410823822021 0 -0.29946202039719
vn -0.98890423774719 0 -0.14855426549912
vn 0.29946196079254 0 0.95410823822021
vn 0.00002998977106 1 -0.00007450477278
vn 0.14855439960957 0 0.98890423774719
vn -0.14855425059795 0 -0.98890423774719
vn -0.81255465745926 0 -0.58288502693176
vn -0.98890423774719 0 -0.14855422079563
vn -0 -1 -0
vn -0 -1 0
vn -0 -1 0
vn 0 -1 -0
vn 0 -1 -0
vn 0.29946202039719 0 0.95410823822021
vn 0.58288502693176 0 0.81255465745926
vn 0.95410823822021 0 0.29946202039719
vn 0.98890423774719 0 0.1485543102026
vn 0 -1 0
vn -0.14855422079563 0 -0.98890423774719
vn 0.1485543102026 0 0.98890423774719
vn 0.81255465745926 0 0.58288502693176
vn 0.07212357223034 -0.00229390524328 -0.99739307165146
vn 0.14855445921421 0 -0.98890423774719
vn 0 1 0
vn -0.99739307165146 0.00229390896857 0.07212357223034
vn 0 1 -0
vn 0 1 0
vn -0.98890423774719 0 0.14855445921421
vn 0 1 0
# 40 normals

vt 0.94203644990921 0.3448783159256 0
vt 0.90976023674011 0.34180080890656 0
vt 0.90976023674011 0.65403038263321 0
vt 0.94203644990921 0.65403038263321 0
vt 0.43998003005981 0.6885986328125 0
vt 0.34710124135017 0.67482167482376 0
vt 0.34899961948395 0.87265074253082 0
vt 0.38127583265305 0.87743830680847 0
vt 0.34762212634087 0.0087798833847 0
vt 0.33158764243126 0.00878822803497 0
vt 0.33158764243126 0.321009516716 0
vt 0.34762212634087 0.321009516716 0
vt 0.45601293444633 0.95123594999313 0
vt 0.46086150407791 0.98310643434525 0
vt 0.66120904684067 0.98498094081879 0
vt 0.64725667238235 0.89326971769333 0
vt 0.52992695569992 0.73250865936279 0
vt 0.41370856761932 0.89327126741409 0
vt 0.88626891374588 0.67482167482376 0
vt 0.79632198810577 0.67483007907867 0
vt 0.79632198810577 0.98705124855042 0
vt 0.88626891374588 0.98705124855042 0
vt 0.30531775951386 0.00878822803497 0
vt 0.30531775951386 0.321009516716 0
vt 0.68950891494751 0.0087798833847 0
vt 0.59663015604019 0.01185739040375 0
vt 0.59663015604019 0.321009516716 0
vt 0.68950891494751 0.321009516716 0
vt 0.27288502454758 0.0087798833847 0
vt 0.27288502454758 0.321009516716 0
vt 0.60278761386871 0.80445349216461 0
vt 0.43997845053673 0.91921091079712 0
vt 0.24060882627964 0.01185739040375 0
vt 0.24060882627964 0.321009516716 0
vt 0.9791476726532 0.67789924144745 0
vt 0.9791476726532 0.98705124855042 0
vt 0.72346127033234 0.67483007907867 0
vt 0.6789922118187 0.67482167482376 0
vt 0.6789922118187 0.98705124855042 0
vt 0.72346127033234 0.98705124855042 0
vt 0.95981967449188 0.65726202726364 0
vt 0.99110841751099 0.65726202726364 0
vt 0.99110841751099 0.34180080890656 0
vt 0.95981967449188 0.34180080890656 0
vt 0.04112953320146 0.44231343269348 0
vt 0.00984079111367 0.44695448875427 0
vt 0.00984079111367 0.65726202726364 0
vt 0.10370702296495 0.64333856105804 0
vt 0.36540532112122 0.32424116134644 0
vt 0.38053122162819 0.32424116134644 0
vt 0.38053122162819 0.0087798833847 0
vt 0.36540532112122 0.0087798833847 0
vt 0.31521734595299 0.43448710441589 0
vt 0.32931804656982 0.34180080890656 0
vt 0.11633320897818 0.34180080890656 0
vt 0.11163298040628 0.37269616127014 0
vt 0.07172445207834 0.42737758159637 0
vt 0.19549176096916 0.59853136539459 0
vt 0.44969871640205 0.65726202726364 0
vt 0.54148346185684 0.65726202726364 0
vt 0.54148346185684 0.34180080890656 0
vt 0.44969871640205 0.34180080890656 0
vt 0.40531384944916 0.32424116134644 0
vt 0.40531384944916 0.0087798833847 0
vt 0.48498070240021 0.32424116134644 0
vt 0.57884693145752 0.32424116134644 0
vt 0.57884693145752 0.0087798833847 0
vt 0.48498070240021 0.0087798833847 0
vt 0.43590876460075 0.32424116134644 0
vt 0.43590876460075 0.0087798833847 0
vt 0.09650709480047 0.40290653705597 0
vt 0.26983970403671 0.5251179933548 0
vt 0.46719750761986 0.32424116134644 0
vt 0.46719750761986 0.0087798833847 0
vt 0.35583248734474 0.65726202726364 0
vt 0.35583248734474 0.34180080890656 0
vt 0.61583137512207 0.65726202726364 0
vt 0.66120904684067 0.65726202726364 0
vt 0.66120904684067 0.34180080890656 0
vt 0.61583137512207 0.34180080890656 0
vt 0.89197707176208 0.34180080890656 0
vt 0.88565844297409 0.34810996055603 0
vt 0.88565844297409 0.65726202726364 0
vt 0.89197707176208 0.65726202726364 0
vt 0.88565844297409 0.32424116134644 0
vt 0.89197707176208 0.3233038187027 0
vt 0.88712853193283 0.29143333435059 0
vt 0.88095819950104 0.29334568977356 0
vt 0.00984079111367 0.0087798833847 0
vt 0.01615943945944 0.01508903503418 0
vt 0.21650697290897 0.01508903503418 0
vt 0.22282563149929 0.0087798833847 0
vt 0.87109398841858 0.25940835475922 0
vt 0.86583232879639 0.26313531398773 0
vt 0.6789922118187 0.34180080890656 0
vt 0.68531090021133 0.34810996055603 0
vt 0.10370702296495 0.68874508142471 0
vt 0.10177037119865 0.69483786821365 0
vt 0.1917172819376 0.73874789476395 0
vt 0.19549176096916 0.73355233669281 0
vt 0.8448241353035 0.23346865177155 0
vt 0.8410496711731 0.23866426944733 0
vt 0.6789922118187 0.65726202726364 0
vt 0.68531090021133 0.65726202726364 0
vt 0.31521734595299 0.89759659767151 0
vt 0.30904704332352 0.89950895309448 0
vt 0.32299938797951 0.99122017621994 0
vt 0.32931804656982 0.99028289318085 0
vt 0.81239140033722 0.21763575077057 0
vt 0.81045472621918 0.22372853755951 0
vt 0.00984079111367 0.32424116134644 0
vt 0.01615943945944 0.32424116134644 0
vt 0.78011518716812 0.21284818649292 0
vt 0.77916598320007 0.21908736228943 0
vt 0.21650697290897 0.32424116134644 0
vt 0.22282563149929 0.32424116134644 0
vt 0.00984079111367 0.67482167482376 0
vt 0.00889159645885 0.68106091022491 0
vt 0.26983970403671 0.8069657087326 0
vt 0.26457798480988 0.81069266796112 0
# 120 texture coordinates

o R2
usemtl WALL
f 28/4/1 37/3/2 17/2/2 27/1/1
f 37/12/2 38/11/5 18/10/5 17/9/2
f 36/22/9 35/21/10 23/20/10 24/19/9
f 38/11/5 39/24/11 19/23/11 18/10/5
f 33/28/12 26/27/13 25/26/13 21/25/12
f 39/24/11 40/30/14 20/29/14 19/23/11
f 40/30/14 30/34/16 29/33/16 20/29/14
f 32/36/17 36/22/9 24/19/9 31/35/17
f 34/40/18 33/39/12 21/38/12 22/37/18
f 35/21/10 34/40/18 22/37/18 23/20/10

usemtl FLOOR
f 20/8/3 29/7/4 31/6/4 24/5/3
f 21/16/6 25/15/7 27/14/7 17/13/6
f 19/18/8 20/8/3 24/5/3 23/17/8
f 17/13/6 18/32/15 22/31/15 21/16/6
f 18/32/15 19/18/8 23/17/8 22/31/15

usemtl OTHER
f 3/44/19 41/43/12 13/42/12 4/41/19
f 48/48/20 7/47/21 5/46/21 44/45/20
f 41/52/12 42/51/18 14/50/18 13/49/12
f 41/56/22 3/55/23 1/54/23 45/53/22
f 47/58/24 48/48/20 44/45/20 43/57/24
f 48/62/25 47/61/26 11/60/26 12/59/25
f 42/51/18 43/64/10 15/63/10 14/50/18
f 45/68/27 1/67/28 2/66/28 9/65/27
f 43/64/10 44/70/9 16/69/9 15/63/10
f 45/53/22 46/72/29 42/71/29 41/56/22
f 44/70/9 5/74/30 6/73/30 16/69/9
f 7/76/31 48/62/25 12/59/25 8/75/31
f 46/80/32 45/79/27 9/78/27 10/77/32
f 47/61/26 46/80/32 10/77/32 11/60/26
f 46/72/29 47/58/24 43/57/24 42/71/29
f 4/84/34 28/83/34 27/82/33 3/81/33
f 13/88/35 37/87/35 28/86/35 4/85/35
f 7/92/36 31/91/36 29/90/36 5/89/36
f 14/94/35 38/93/35 37/87/35 13/88/35
f 3/81/33 27/82/33 25/96/33 1/95/33
f 11/100/37 35/99/37 36/98/35 12/97/35
f 15/102/35 39/101/35 38/93/35 14/94/35
f 1/95/33 25/96/33 26/104/34 2/103/34
f 2/108/35 26/107/35 33/106/38 9/105/38
f 16/110/35 40/109/35 39/101/35 15/102/35
f 5/89/36 29/90/36 30/112/39 6/111/39
f 6/114/35 30/113/35 40/109/35 16/110/35
f 8/116/39 32/115/39 31/91/36 7/92/36
f 12/97/35 36/98/35 32/118/35 8/117/35
f 9/105/38 33/106/38 34/120/40 10/119/40
f 10/119/40 34/120/40 35/99/37 11/100/37

