# WaveFront *.obj file (generated by CINEMA 4D)

mtllib ./S4.mtl

v 100 0.00000000000001 50
v 100 150 50
v -100 150 50
v -100 0.00000000000001 50
v 100 0.00000000000001 -50
v 100 150 -50
v -100 0 -50
v -100 150 -50
v 100 2.25 47
v 100 150 47
v -100 150 47
v -100 2.25 47
v 100 2.25 -47
v 100 150 -47
v -100 2.25 -47
v -100 150 -47
# 16 vertices

vn 0 0 -1
vn 0 0 1
vn 0 1 0
vn 0 -1 0
vn 1 0 0
vn -1 -0 -0
vn -1 0 0
# 7 normals

vt 0.40495947003365 0.98492753505707 0
vt 0.78512156009674 0.98492753505707 0
vt 0.78512156009674 0.6474357843399 0
vt 0.40495947003365 0.6474357843399 0
vt 0.78512156009674 0.29007804393768 0
vt 0.40495947003365 0.29007804393768 0
vt 0.40495947003365 0.6275697350502 0
vt 0.78512156009674 0.6275697350502 0
vt 0.40495947003365 0.05549645423889 0
vt 0.40495947003365 0.27021193504333 0
vt 0.78512156009674 0.27021193504333 0
vt 0.78512156009674 0.05549645423889 0
vt 0.38842788338661 0.6474357843399 0
vt 0.00826579425484 0.6474357843399 0
vt 0.00826579425484 0.99006700515747 0
vt 0.38842788338661 0.99006700515747 0
vt 0.00826579425484 0.6275697350502 0
vt 0.38842788338661 0.6275697350502 0
vt 0.38842788338661 0.28493857383728 0
vt 0.00826579425484 0.28493857383728 0
vt 0.38842788338661 0.26507246494293 0
vt 0.38842788338661 0.03665173053741 0
vt 0.00826579425484 0.03665173053741 0
vt 0.00826579425484 0.26507246494293 0
vt 0.80165314674377 0.99006700515747 0
vt 0.80735558271408 0.99006700515747 0
vt 0.80735558271408 0.65257525444031 0
vt 0.80165314674377 0.6474357843399 0
vt 0.00826579425484 0.00993299484253 0
vt 0.00826579425484 0.01678562164307 0
vt 0.38842788338661 0.01678562164307 0
vt 0.38842788338661 0.00993299484253 0
vt 0.99173420667648 0.28493857383728 0
vt 0.98603177070618 0.29007804393768 0
vt 0.98603177070618 0.6275697350502 0
vt 0.99173420667648 0.6275697350502 0
vt 0.99173420667648 0.6474357843399 0
vt 0.98603177070618 0.65257525444031 0
vt 0.98603177070618 0.99006700515747 0
vt 0.99173420667648 0.99006700515747 0
vt 0.80165314674377 0.6275697350502 0
vt 0.80735558271408 0.6275697350502 0
vt 0.80735558271408 0.29007804393768 0
vt 0.80165314674377 0.28493857383728 0
vt 0.78512156009674 0.03563034534454 0
vt 0.78512156009674 0.02877771854401 0
vt 0.40495947003365 0.02877771854401 0
vt 0.40495947003365 0.03563034534454 0
# 48 texture coordinates

o S4
usemtl WALL
f 9/4/1 12/3/1 11/2/1 10/1/1
f 14/8/2 16/7/2 15/6/2 13/5/2

usemtl FLOOR
f 9/12/3 13/11/3 15/10/3 12/9/3

usemtl OTHER
f 2/16/2 3/15/2 4/14/2 1/13/2
f 5/20/1 7/19/1 8/18/1 6/17/1
f 4/24/4 7/23/4 5/22/4 1/21/4
f 1/28/5 9/27/5 10/26/5 2/25/5
f 2/32/3 10/31/3 11/30/3 3/29/3
f 3/36/7 11/35/7 12/34/6 4/33/6
f 6/40/5 14/39/5 13/38/5 5/37/5
f 7/44/6 15/43/6 16/42/7 8/41/7
f 8/48/3 16/47/3 14/46/3 6/45/3
f 4/33/6 12/34/6 15/43/6 7/44/6
f 5/37/5 13/38/5 9/27/5 1/28/5

